<svg height="328" viewBox="0 0 328 328" width="328" xmlns="http://www.w3.org/2000/svg"><g fill="none" fill-rule="evenodd" transform="translate(14 14)"><g stroke-width="28"><path d="m149.833632 299.667264c82.75083 0 149.833632-67.082802 149.833632-149.833632s-67.082802-149.833632-149.833632-149.833632c-63.3115058 0-117.451627 39.2673655-139.3943485 94.7760812-6.7373484 17.0435358-10.4392835 35.6182268-10.4392835 55.0575508 0 77.273024 58.4954788 140.883698 133.621099 148.966683 5.325579.572995 10.734728.866949 16.212533.866949z" stroke="#4ed8da"/><path d="m149.833632 0c-63.3115058 0-117.451627 39.2673655-139.3943485 94.7760812-6.7373484 17.0435358-10.4392835 35.6182268-10.4392835 55.0575508 0 77.273024 58.4954788 140.883698 133.621099 148.966683" stroke="#e06950"/><path d="m10.4392835 94.7760812c-6.7373484 17.0435358-10.4392835 35.6182268-10.4392835 55.0575508 0 77.273024 58.4954788 140.883698 133.621099 148.966683" stroke="#c04dd8"/></g><g fill="#fff"><text font-family="Gotham-Book, Gotham" font-size="32" font-weight="300"><tspan x="89.188" y="150">7 Fields</tspan></text><text font-family="OpenSans, Open Sans" font-size="13" opacity=".5"><tspan x="96.100586" y="177">Areas of Research </tspan><tspan x="121.234131" y="195">Benefited</tspan></text></g></g></svg>