<svg height="229" viewBox="0 0 229 229" width="229" xmlns="http://www.w3.org/2000/svg"><g fill="none" fill-rule="evenodd" stroke-width="28" transform="translate(14 14)"><path d="m100.388533 200.777067c55.443057 0 100.388534-44.945477 100.388534-100.388534 0-55.4430556-44.945477-100.388533-100.388534-100.388533-42.4187085 0-78.6925897 26.3091349-93.39421303 63.4999744-4.51402345 11.419169-6.99431997 23.8642119-6.99431997 36.8885586 0 51.772927 39.1919708 94.392078 89.5261366 99.807678 3.5681375.383907 7.1922672.580856 10.8623964.580856z" stroke="#4ed8da"/><path d="m100.388533 0c-42.4187085 0-78.6925897 26.3091349-93.39421303 63.4999744-4.51402345 11.419169-6.99431997 23.8642119-6.99431997 36.8885586 0 51.772927 39.1919708 94.392078 89.5261366 99.807678" stroke="#ff9e3e"/><path d="m6.99431997 63.4999744c-4.51402345 11.419169-6.99431997 23.8642119-6.99431997 36.8885586 0 51.772927 39.1919708 94.392078 89.5261366 99.807678" stroke="#9a21ff"/></g></svg>