<?xml version="1.0" encoding="utf-8"?>
<!-- Generator: Adobe Illustrator 21.1.0, SVG Export Plug-In . SVG Version: 6.00 Build 0)  -->
<svg version="1.1" id="Layer_1" xmlns="http://www.w3.org/2000/svg" xmlns:xlink="http://www.w3.org/1999/xlink" x="0px" y="0px"
	 viewBox="0 0 358.9 112.3" style="enable-background:new 0 0 358.9 112.3;" xml:space="preserve">
<style type="text/css">
	.st0{fill:#25AC9B;}
	.st1{fill:#ECB004;}
	.st2{fill:#2E3959;}
	.st3{fill:#287CBC;}
	.st4{fill:#075681;}
	.st5{fill:#E94B86;}
	.st6{fill:#2B3B5C;}
	.st7{fill:#C62101;}
	.st8{fill:#B52A8F;}
</style>
<g>
	<path class="st0" d="M80.6,100.8c38.4,15.2,84,7.3,115-23.8l0,0l47.7-47.7l0,0c0,0,0,0,0.1-0.1c10.7-10.7,25.4-15.2,39.4-13.5
		c-38.4-15.2-84-7.3-115,23.8l0,0L120,87.3l0,0c0,0,0,0-0.1,0.1C109.2,98.1,94.5,102.6,80.6,100.8z"/>
	<path class="st1" d="M326.2,112.3l-6-6l-34.1-34.1l-42.9-42.9l0.1-0.1c10.7-10.7,25.3-15.2,39.3-13.5c13.2,5.2,25.5,13.1,36.2,23.8
		l40.1,40.1C358.9,79.7,358.3,112.1,326.2,112.3z"/>
	<path class="st2" d="M203.7,15.8c25.3-10,53.6-10,78.9,0c-14-1.8-28.6,2.7-39.4,13.5C232.5,18.5,217.8,14,203.7,15.8z"/>
	<path class="st3" d="M80.6,100.8C67.4,95.6,55,87.7,44.4,77.1L6.8,39.4c-9-9-9-23.7,0-32.7c9-9,23.7-9,32.7,0l6,6l31.6,31.6
		L120,87.3l-0.1,0.1C109.2,98.1,94.6,102.6,80.6,100.8z"/>
	<path class="st4" d="M159.5,100.8c-25.3,10-53.6,10-78.9,0c14,1.8,28.6-2.7,39.4-13.5C130.7,98.2,145.4,102.6,159.5,100.8z"/>
	<g>
		<path class="st5" d="M80.6,17.2C119,2,164.5,10,195.6,41l0,0l47.7,47.7l0,0c0,0,0,0,0.1,0.1c10.7,10.7,25.4,15.2,39.4,13.5
			c-38.4,15.2-84,7.3-115-23.8l0,0L120,30.8l0,0c0,0,0,0-0.1-0.1C109.2,20,94.5,15.5,80.6,17.2z"/>
		<path class="st6" d="M195.5,77l18-18l-18-18l0,0c-4.7-4.7-9.7-8.8-15-12.5c-4.5,3.3-8.9,7-13,11l0,0L148.2,59l19.4,19.4l0,0
			c4.1,4.1,8.4,7.8,13,11C185.9,85.9,190.9,81.7,195.5,77L195.5,77z"/>
		<path class="st5" d="M318.9,39.9c-4.6-4.6-9.6-8.8-14.8-12.4l-17.9,17.9L272.7,59l13.6,13.6l17.9,17.9c5.2-3.6,10.2-7.7,14.8-12.4
			L338,59L318.9,39.9z"/>
		<path class="st7" d="M203.7,102.2c25.3,10,53.6,10,78.9,0c-14,1.8-28.6-2.7-39.4-13.5C232.5,99.6,217.8,104.1,203.7,102.2z"/>
		<path class="st4" d="M77.1,44.4L60.5,27.8C54.8,31.6,49.4,36,44.4,41l-18,18l18,18c5,5,10.4,9.4,16.1,13.2l16.6-16.6L91.7,59
			L77.1,44.4z"/>
		<path class="st8" d="M159.5,17.3c-25.3-10-53.6-10-78.9,0c14-1.8,28.6,2.7,39.4,13.5C130.7,19.9,145.4,15.4,159.5,17.3z"/>
	</g>
</g>
</svg>
