<svg height="470" viewBox="0 0 974 470" width="974" xmlns="http://www.w3.org/2000/svg"><g fill="none" fill-rule="evenodd"><g transform="translate(-25 -2)"><path d="m90.3857143 422.469325h907.9651007" opacity=".2" stroke="#fff" stroke-linecap="square"/><path d="m90.3857143 284.395706h907.9651007" opacity=".2" stroke="#fff" stroke-linecap="square"/><path d="m90.3857143 144.095092h907.9651007" opacity=".2" stroke="#fff" stroke-linecap="square"/><path d="m90.3857143 6.02147239h907.9651007" opacity=".2" stroke="#fff" stroke-linecap="square"/><g fill="#fff" font-family="Roboto-Regular, Roboto" font-size="12"><text opacity=".5"><tspan x="157.711021" y="470.380368">18-24</tspan></text><text opacity=".5"><tspan x="306.768164" y="470.380368">25-34</tspan></text><text opacity=".5"><tspan x="455.825307" y="470.380368">35-44</tspan></text><text opacity=".5"><tspan x="604.88245" y="470.380368">45-54</tspan></text><text opacity=".5"><tspan x="753.939593" y="470.380368">55-64</tspan></text><text opacity=".5"><tspan x="901.646066" y="470.380368">65+</tspan></text><text opacity=".5"><tspan x="25.338616" y="287.766871">10%</tspan></text><text opacity=".5"><tspan x="39.807757" y="425.840491">0%</tspan></text><text opacity=".5"><tspan x="25.338616" y="149.693252">20%</tspan></text><text opacity=".5"><tspan x="25.338616" y="11.619632">30%</tspan></text></g></g><g fill="#4ed8da" transform="translate(111 46)"><path d="m0 210.533759h85.622568v162.466241h-85.622568z"/><path d="m145.875486.595003h85.622568v372.404997h-85.622568z"/><path d="m291.750973 152.320717h85.622568v220.679283h-85.622568z"/><path d="m440.797665 239.25498h85.622568v133.74502h-85.622568z"/><path d="m586.673152 183.527888h85.622568v189.472112h-85.622568z"/><path d="m729.377432 318.988258h85.622568v53.498008h-85.622568z"/></g></g></svg>