<svg height="394" viewBox="0 0 960 394" width="960" xmlns="http://www.w3.org/2000/svg"><g fill="none" fill-rule="evenodd"><g transform="translate(-1.358458 -1.01139)"><g font-size="12"><text fill="#4ed8da" font-family="Gotham" font-weight="400"><tspan x="45.309256" y="11">Week</tspan></text><text fill="#fff" font-family="Gotham"><tspan x="98.904505" y="11">Month</tspan></text><text fill="#fff" font-family="Gotham"><tspan x="157.132062" y="11">Year</tspan></text><text fill="#fff" font-family="Gotham"><tspan x=".889526" y="11">Day</tspan></text></g><path d="m44.9604472 27.9212242h29.9736314" stroke="#4ed8da" stroke-linecap="square" stroke-width="2"/></g><g transform="translate(-1.358458 23.346492)"><path d="m39.608013 165.840623h920.618681" opacity=".2" stroke="#fff" stroke-linecap="square"/><path d="m39.608013 86.5066516h920.618681" opacity=".2" stroke="#fff" stroke-linecap="square"/><path d="m39.608013 7.17268064h920.618681" opacity=".2" stroke="#fff" stroke-linecap="square"/><path d="m39.608013 245.174594h920.618681" opacity=".2" stroke="#fff" stroke-linecap="square"/><path d="m39.608013 324.508564h920.618681" opacity=".2" stroke="#fff" stroke-linecap="square"/><g fill="#fff" font-family="Gotham" font-size="12"><text><tspan x="1.13269" y="250.909507">200</tspan></text><text><tspan x="1.13269" y="328.099316">100</tspan></text><text><tspan x="1.13269" y="170.503455">400</tspan></text><text><tspan x="1.13269" y="91.169484">600</tspan></text><text><tspan x="1.13269" y="11.835513">800</tspan></text><text><tspan x="50.449111" y="368.838382">Jan 1</tspan></text><text><tspan x="148.9339" y="368.838382">Jan 7</tspan></text><text><tspan x="248.866739" y="368.838382">Jan 14</tspan></text><text><tspan x="354.844936" y="368.838382">Jan 21</tspan></text><text><tspan x="460.823133" y="368.838382">Jan 28</tspan></text><text><tspan x="564.230059" y="368.838382">Feb 4</tspan></text><text><tspan x="666.303872" y="368.838382">Feb 11</tspan></text><text><tspan x="772.282069" y="368.838382">Feb 18</tspan></text><text><tspan x="878.260266" y="368.838382">Feb 25</tspan></text></g></g><g transform="translate(59.659292 86.803409)"><path d="m4.28194735 241.73129 98.42624665-66.994701 104.815715-17.107225 104.497915 51.212792 106.137962-145.371629 99.926572-59.5549198 106.0911 65.5518712 106.407469-56.8602842 105.916905 100.5077878" stroke="#c04dd8" stroke-width="3"/><g fill="#c04dd8"><ellipse cx="4.281947" cy="241.218155" rx="4.281947" ry="4.288323"/><ellipse cx="102.766736" cy="174.749152" rx="4.281947" ry="4.288323"/><ellipse cx="206.60396" cy="157.595861" rx="4.281947" ry="4.288323"/><ellipse cx="312.582157" cy="207.983654" rx="4.281947" ry="4.288323"/><ellipse cx="418.560354" cy="64.324841" rx="4.281947" ry="4.288323"/><ellipse cx="518.11563" cy="4.288323" rx="4.281947" ry="4.288323"/><ellipse cx="624.093826" cy="68.613164" rx="4.281947" ry="4.288323"/><ellipse cx="730.072023" cy="12.864968" rx="4.281947" ry="4.288323"/><ellipse cx="836.05022" cy="112.568472" rx="4.281947" ry="4.288323"/></g></g><g transform="translate(59.659292 68.578037)"><path d="m2.93338483 148.715599 100.28078117-58.051494 103.552876 46.924469 106.40681-57.0903904 105.386502-76.90294426 99.58224 153.56593766 105.988214 66.759427 106.157653-56.850171 105.36869-159.17598413" stroke="#4ed8da" stroke-width="3"/><ellipse cx="4.281947" cy="150.091296" fill="#4ed8da" rx="4.281947" ry="4.288323"/><ellipse cx="102.766736" cy="92.198939" fill="#4ed8da" rx="4.281947" ry="4.288323"/><ellipse cx="518.11563" cy="157.595861" fill="#4ed8da" rx="4.281947" ry="4.288323"/><ellipse cx="207.674447" cy="137.226328" fill="#4ed8da" fill-rule="evenodd" rx="4.281947" ry="4.288323"/><ellipse cx="207.674447" cy="137.226328" rx="5.781947" ry="5.788323" stroke="#fff" stroke-opacity=".3" stroke-width="3"/><g fill="#4ed8da"><ellipse cx="312.582157" cy="81.478132" rx="4.281947" ry="4.288323"/><ellipse cx="418.560354" cy="4.288323" rx="4.281947" ry="4.288323"/><ellipse cx="624.093826" cy="224.064864" rx="4.281947" ry="4.288323"/><ellipse cx="730.072023" cy="167.244587" rx="4.281947" ry="4.288323"/><ellipse cx="836.05022" cy="8.576646" rx="4.281947" ry="4.288323"/></g></g></g></svg>